HIERARCHY
ROOT Hips
{
  OFFSET 0 0 0
  CHANNELS 6 Xposition Yposition Zposition Zrotation Xrotation Yrotation
  JOINT Spine
  {
    OFFSET 0 10 0
    CHANNELS 3 Zrotation Xrotation Yrotation
    JOINT Neck
    {
      OFFSET 0 30 0
      CHANNELS 3 Zrotation Xrotation Yrotation
      JOINT Head
      {
        OFFSET 0 8 0
        CHANNELS 3 Zrotation Xrotation Yrotation
        End Site
        {
          OFFSET 0 10 0
        }
      }
    }
    JOINT LeftArm
    {
      OFFSET 15 30 0
      CHANNELS 3 Zrotation Xrotation Yrotation
      JOINT LeftForeArm
      {
        OFFSET 25 0 0
        CHANNELS 3 Zrotation Xrotation Yrotation
        JOINT LeftHand
        {
          OFFSET 25 0 0
          CHANNELS 3 Zrotation Xrotation Yrotation
          End Site
          {
            OFFSET 10 0 0
          }
        }
      }
    }
    JOINT RightArm
    {
      OFFSET -15 30 0
      CHANNELS 3 Zrotation Xrotation Yrotation
      JOINT RightForeArm
      {
        OFFSET -25 0 0
        CHANNELS 3 Zrotation Xrotation Yrotation
        JOINT RightHand
        {
          OFFSET -25 0 0
          CHANNELS 3 Zrotation Xrotation Yrotation
          End Site
          {
            OFFSET -10 0 0
          }
        }
      }
    }
  }
  JOINT LeftUpLeg
  {
    OFFSET 10 -10 0
    CHANNELS 3 Zrotation Xrotation Yrotation
    JOINT LeftLeg
    {
      OFFSET 0 -35 0
      CHANNELS 3 Zrotation Xrotation Yrotation
      JOINT LeftToe
      {
        OFFSET 0 -40 0
        CHANNELS 3 Zrotation Xrotation Yrotation
        JOINT LeftToeEnd
        {
          OFFSET 0 0 0
          CHANNELS 3 Zrotation Xrotation Yrotation
          End Site
          {
            OFFSET 0 0 15
          }
        }
      }
    }
  }
  JOINT RightUpLeg
  {
    OFFSET -10 -10 0
    CHANNELS 3 Zrotation Xrotation Yrotation
    JOINT RightLeg
    {
      OFFSET 0 -35 0
      CHANNELS 3 Zrotation Xrotation Yrotation
      JOINT RightToe
      {
        OFFSET 0 -40 0
        CHANNELS 3 Zrotation Xrotation Yrotation
        JOINT RightToeEnd
        {
          OFFSET 0 0 0
          CHANNELS 3 Zrotation Xrotation Yrotation
          End Site
          {
            OFFSET 0 0 15
          }
        }
      }
    }
  }
}
MOTION
Frames:	13
Frame Time:	0.0333333
3.44657 86.6999 -7.20566 1.87457 -0.31841 -7.08583 -7.00264 4.99313 0.865391 -10.0608 -23.7939 -7.58902 24.0689 22.4126 -15.5805 -81.0234 0.430716 -5.99584 -1.74323e-015 -1.59028e-015 -17.2649 10.6986 8.01209 -1.34737 86.4877 19.9018 10.0553 -2.12906e-015 1.59028e-015 16.485 -12.1656 23.0147 0.51321 -1.73173 -4.95552 -1.8006 -1.5999e-015 26.7035 3.56028e-015 -0.332981 -21.6661 15.7294 3.20307e-018 -1.34e-005 -0 0.787581 -11.8252 15.9917 0 35.771 -0 -0.319051 -22.1656 -15.0013 2.48481e-017 -1.98785e-016 7.95139e-016 
3.51603 86.6668 -7.24771 2.13503 -0.535273 -7.06316 -7.43769 5.61561 0.942306 -9.57387 -24.1484 -7.50226 23.3439 22.2783 -15.2975 -80.7806 0.416006 -6.40867 4.15788e-016 0 -17.0239 10.5338 8.42501 -1.30301 86.4375 20.2571 10.3084 1.09629e-015 -6.36111e-015 16.8543 -12.5137 22.3213 0.709971 -2.03476 -4.85547 -1.49152 1.98785e-016 26.8166 -0 -0.313505 -21.6052 15.6186 3.10601e-018 -1.34e-005 -0 0.4011 -11.8447 15.7909 0 36.1308 -0 -0.449319 -22.3777 -14.8624 -1.73937e-016 5.96354e-016 7.95139e-016 
3.55091 86.6348 -7.41876 2.13944 -0.542578 -6.9826 -7.62542 6.30006 1.13667 -9.03383 -24.8278 -7.29157 22.6711 22.288 -14.9043 -80.4957 0.482578 -7.09835 -8.30979e-016 0 -16.8889 10.4619 9.09964 -1.27627 86.3648 20.8754 10.5155 -1.98374e-015 6.36111e-015 17.3204 -12.7824 20.4333 0.876729 -1.81759 -5.30168 -0.672773 -1.24615e-015 27.33 3.58019e-015 -0.393567 -21.6358 14.3486 -1.55301e-017 -1.34e-005 -0 0.446767 -12.0913 15.8305 -3.52201e-015 36.4361 5.93004e-015 -0.588482 -22.5111 -14.9384 7.45443e-017 -1.98785e-016 -7.95139e-016 
3.61629 86.5363 -7.63156 1.93998 -0.412663 -6.59776 -7.14701 7.01919 1.03611 -9.13386 -25.279 -7.14702 22.337 21.6327 -14.1376 -80.5212 0.654878 -7.72302 -4.15346e-016 0 -16.8234 10.416 9.1086 -1.27097 86.1698 20.6884 10.6699 1.88353e-015 -3.18055e-015 18.2122 -13.1806 20.2483 0.830928 -1.20898 -6.71321 0.626747 -2.44719e-016 29.1514 9.10462e-016 -0.421509 -21.9084 12.8322 3.72718e-017 -1.34e-005 -1.59028e-015 0.670141 -12.5409 15.5235 1.19469e-015 36.9156 -1.98904e-015 -0.837099 -22.7182 -15.0481 4.34841e-016 1.98785e-016 -0 
3.7321 86.3835 -7.89279 1.6381 -0.235892 -6.26723 -6.56339 8.04576 1.03981 -9.16879 -25.8866 -6.89568 21.6654 20.6898 -13.1691 -80.4594 0.959967 -8.68635 5.46335e-016 3.18055e-015 -16.8234 10.376 9.04853 -1.25479 85.6796 20.8727 11.0536 -1.95381e-015 3.18055e-015 19.263 -13.7747 19.6288 0.961916 -0.566954 -8.41987 1.73477 -3.86186e-016 31.4118 9.31682e-016 -0.263401 -22.3206 11.3468 1.24242e-017 -1.34e-005 7.95139e-016 0.817092 -13.2932 14.6917 -1.6234e-015 37.6261 2.0079e-015 -1.05248 -22.9 -14.5454 2.48481e-016 1.98785e-016 -1.59028e-015 
3.85698 86.167 -8.29562 1.06604 -0.312686 -5.55785 -5.36198 10.078 0.963335 -9.12368 -27.1028 -6.68211 20.3061 19.6545 -11.9797 -80.6466 1.46824 -10.1784 -3.13387e-015 -4.77083e-015 -17.1234 10.5252 8.99734 -1.27144 84.7255 20.7869 11.7368 -2.04499e-015 3.18055e-015 20.6007 -14.3589 18.7428 0.9961 0.470669 -10.5573 2.82473 5.71544e-016 34.5122 -4.82484e-016 -0.108056 -22.753 9.69387 2.98177e-016 -1.34e-005 -7.95139e-016 1.15662 -13.9372 13.3409 -1.02925e-015 38.4647 1.01551e-015 -1.23293 -22.8593 -14.0256 3.10601e-016 -3.97569e-016 1.59028e-015 
3.9761 85.8465 -8.84649 -0.386419 -0.661155 -5.46127 -2.78621 13.0576 1.42401 -10.0065 -27.9983 -6.36039 19.2386 16.976 -10.3315 -81.2689 2.45169 -12.3579 -9.18678e-016 -1.59028e-015 -17.5123 10.6787 8.32523 -1.3006 82.6945 20.7342 13.068 -1.71599e-015 0 22.0679 -15.2441 18.1256 1.32567 2.45149 -12.5579 3.79196 -6.52938e-016 38.1196 2.52674e-016 0.182261 -23.7239 8.52612 -2.98177e-016 -1.34e-005 7.95139e-016 2.46832 -14.2517 12.7777 -8.9406e-016 39.0836 2.04873e-015 -1.47724 -23.2777 -13.0399 8.32411e-016 4.96962e-017 7.95139e-016 
4.12737 85.5011 -9.40487 -0.60995 -1.17322 -5.42364 -2.42778 15.9317 2.08665 -10.1912 -28.6183 -5.93388 18.6982 14.4168 -8.96436 -80.7201 3.99567 -14.1875 2.30567e-015 3.18055e-015 -18.2646 11.0574 7.62253 -1.34846 81.2189 21.0156 14.2518 2.76764e-015 -6.36111e-015 23.5133 -16.0327 17.2328 1.58311 2.95774 -13.6725 4.6486 -7.15736e-016 40.3831 2.60965e-016 0.28396 -24.1964 7.55163 -4.96965e-017 -1.34e-005 -1.59028e-015 2.18982 -14.918 11.6101 -1.34579e-015 40.24 2.0833e-015 -1.58177 -23.5832 -11.7073 2.04997e-016 -2.48481e-017 -0 
4.25323 85.1528 -10.0331 -0.372003 -1.28618 -5.09966 -2.76998 18.2947 2.39773 -9.23911 -29.4088 -5.43938 17.185 12.3645 -7.73088 -79.8245 5.4352 -15.7323 -4.21198e-016 0 -19.2828 11.6059 6.81245 -1.4257 80.4087 20.5904 15.4028 1.45039e-015 -3.18055e-015 24.5139 -16.5552 17.8758 1.68674 2.80286 -14.8904 4.79445 -2.52527e-016 41.8399 2.66821e-016 0.359967 -24.4983 6.99837 -0 -1.34e-005 -0 1.60686 -16.2405 10.5663 -1.31184e-015 41.9817 1.06966e-015 -1.79441 -24.0725 -10.6153 7.06617e-017 -4.96962e-017 -0 
4.4308 84.8105 -10.5868 0.0852467 -1.6966 -5.20862 -3.67306 20.7603 3.10865 -8.28244 -29.2177 -4.86779 15.8947 9.13118 -6.62795 -78.5798 6.89017 -17.0788 1.10867e-015 -1.59028e-015 -20.2352 12.1061 5.60883 -1.47608 80.1142 19.7713 16.2362 -3.8754e-016 6.36111e-015 25.4678 -17.1426 18.4246 1.86315 2.43028 -15.4648 5.4074 -1.61582e-016 42.9283 5.93878e-017 0.379334 -24.7644 6.27929 -5.2181e-016 -1.34e-005 -0 0.60139 -17.4307 9.3976 -7.80013e-016 43.8891 5.51656e-016 -1.87979 -24.5325 -9.20244 1.44429e-016 -1.2424e-017 -0 
4.60897 84.4719 -11.1327 1.05817 -1.95801 -5.06412 -5.38702 22.8936 3.79694 -7.39136 -29.7339 -4.55976 15.1308 7.79384 -6.15613 -77.0059 8.46082 -17.952 -1.48867e-015 -1.59028e-015 -21.701 12.9065 4.68414 -1.6092 80.4344 18.8264 16.8068 -6.83506e-016 3.18055e-015 26.276 -17.6966 18.378 2.11871 1.56929 -16.1568 6.14539 -4.09227e-017 43.7073 2.7499e-016 0.282118 -24.7138 5.46235 3.23025e-016 -1.34e-005 -7.95139e-016 -0.966709 -18.9456 8.48305 1.98785e-016 45.9873 -0 -1.30839 -25.1003 -7.65173 -8.04457e-016 4.96962e-017 -1.59028e-015 
4.86089 84.0684 -11.6856 1.5774 -2.069 -4.89903 -6.11518 24.7534 4.39153 -6.97856 -29.9422 -4.34607 14.103 6.21841 -5.71469 -75.7594 10.0205 -18.9494 0 0 -22.642 13.379 3.90022 -1.67894 80.4568 17.7697 17.1547 1.06191e-015 3.18055e-015 26.8858 -17.9825 18.1651 2.15524 1.32987 -17.1843 7.14227 1.98785e-016 44.9338 -0 0.138385 -24.9377 4.30683 -3.72718e-017 -1.34e-005 1.59028e-015 -2.16845 -20.3887 7.49797 5.39489e-016 47.9063 -5.93082e-016 -0.739249 -25.7096 -5.90233 -1.13719e-015 -1.2424e-017 -0 
5.11861 83.6348 -12.1828 2.02485 -1.9584 -4.80675 -6.61189 26.2045 5.01783 -7.18168 -30.5855 -4.17012 13.7406 5.60037 -5.23637 -74.853 11.2982 -19.6278 8.6877e-016 0 -23.7593 13.9584 3.50289 -1.79066 80.2408 16.8609 17.239 1.65852e-015 -3.18055e-015 27.5401 -18.4776 18.0745 2.44854 1.28263 -18.4615 8.18833 -8.3164e-016 46.2854 1.1506e-015 -0.0391069 -25.2301 2.88174 -8.69681e-017 -1.34e-005 7.95139e-016 -3.31682 -22.0246 6.46256 6.20533e-017 49.9071 3.08658e-016 -0.0974882 -26.8466 -4.03456 -6.02566e-016 -1.98785e-016 -0 
